<svg width="150" height="70" viewBox="0 0 221 72" fill="none" xmlns="http://www.w3.org/2000/svg">
<g id="creer&#235;&#161;&#156;&#234;&#179;&#160; 1" clip-path="url(#clip0_128_188)" filter="url(#filter0_d_128_188)">
<g id="Group">
<path id="Vector" d="M49.94 42.7466V45.6566C49.94 47.9366 49.45 50.1266 48.49 52.2366C47.52 54.3466 46.08 56.2166 44.17 57.8666C42.26 59.5166 39.86 60.8366 36.97 61.8266C34.09 62.8166 30.76 63.3166 26.98 63.3166C23.54 63.3166 20.41 62.8466 17.6 61.8966C14.79 60.9566 12.38 59.6166 10.37 57.8966C8.36 56.1766 6.8 54.0966 5.68 51.6466C4.56 49.1966 4 46.4766 4 43.4666V35.3266C4 32.3266 4.56 29.5966 5.67 27.1466C6.78 24.6966 8.35 22.6166 10.36 20.8966C12.37 19.1766 14.78 17.8466 17.59 16.8966C20.4 15.9566 23.52 15.4766 26.97 15.4766C30.6 15.4766 33.84 15.9766 36.67 16.9666C39.5 17.9566 41.9 19.2766 43.87 20.9266C45.83 22.5766 47.33 24.4666 48.38 26.5966C49.42 28.7266 49.94 30.9066 49.94 33.1366V35.3166H35.69V33.8766C35.69 32.9666 35.48 32.0866 35.07 31.2466C34.66 30.4066 34.08 29.6466 33.33 28.9766C32.58 28.3066 31.67 27.7666 30.6 27.3566C29.53 26.9466 28.32 26.7466 26.97 26.7466C25.61 26.7466 24.4 26.9866 23.34 27.4666C22.27 27.9466 21.36 28.6166 20.61 29.4566C19.86 30.2966 19.28 31.2866 18.87 32.4166C18.46 33.5466 18.25 34.7666 18.25 36.0666V42.7166C18.25 44.0166 18.46 45.2366 18.87 46.3666C19.28 47.4966 19.86 48.4866 20.61 49.3266C21.36 50.1666 22.27 50.8366 23.34 51.3166C24.41 51.7966 25.62 52.0366 26.97 52.0366C28.33 52.0366 29.54 51.8366 30.6 51.4266C31.67 51.0166 32.57 50.4766 33.33 49.8066C34.08 49.1366 34.66 48.3766 35.07 47.5366C35.48 46.6966 35.69 45.8166 35.69 44.9066V42.7466H49.94Z" fill="#403D39"/>
<path id="Vector_2" d="M69.27 24.4978C69.66 23.4778 70.19 22.4878 70.87 21.5178C71.55 20.5478 72.36 19.6878 73.3 18.9378C74.24 18.1878 75.32 17.5978 76.53 17.1578C77.74 16.7178 79.12 16.5078 80.67 16.5078H83.5V28.8678H81.61C80.06 28.8678 78.61 29.1678 77.25 29.7778C75.89 30.3878 74.67 31.2478 73.58 32.3578C72.49 33.4778 71.57 34.7978 70.82 36.3178C70.07 37.8478 69.55 39.5278 69.26 41.3678V62.3678H55.02V16.5078H69.27V24.4978Z" fill="#403D39"/>
<path id="Vector_3" d="M99.9402 44.7744C99.9402 46.0844 100.18 47.2344 100.67 48.2244C101.15 49.2144 101.82 50.0444 102.67 50.6944C103.52 51.3444 104.49 51.8444 105.58 52.1844C106.67 52.5244 107.82 52.6944 109.03 52.6944C111.65 52.6944 113.69 52.3944 115.17 51.7844C116.65 51.1744 117.39 50.2944 117.39 49.1344V47.7544H131.64V49.8644C131.64 51.8044 131.07 53.5944 129.93 55.2444C128.79 56.8944 127.22 58.3244 125.21 59.5344C123.2 60.7444 120.81 61.6944 118.05 62.3644C115.29 63.0444 112.28 63.3844 109.04 63.3844C105.7 63.3844 102.61 62.9144 99.7702 61.9644C96.9302 61.0144 94.4802 59.6844 92.3902 57.9644C90.3102 56.2444 88.6702 54.2144 87.4802 51.8644C86.2902 49.5144 85.7002 46.9144 85.7002 44.0544V35.3344C85.7002 32.3344 86.2902 29.6044 87.4802 27.1544C88.6702 24.7044 90.3002 22.6244 92.3902 20.9044C94.4702 19.1844 96.9302 17.8544 99.7702 16.9044C102.61 15.9544 105.69 15.4844 109.04 15.4844C112.39 15.4844 115.47 15.9544 118.31 16.9044C121.14 17.8444 123.6 19.1844 125.69 20.9044C127.77 22.6244 129.41 24.7044 130.6 27.1544C131.79 29.6044 132.38 32.3244 132.38 35.3344V44.4944H99.9402V44.7744ZM109.75 18.9044C109.65 20.9444 109.11 22.6644 108.11 24.0644C107.12 25.4744 105.88 26.6044 104.4 27.4844C102.92 28.3544 101.3 29.0044 99.5302 29.4144C97.7602 29.8244 96.0002 30.0544 94.2602 30.1044C96.0502 30.1544 97.8602 30.4244 99.6702 30.9044C101.49 31.3844 103.15 32.1144 104.65 33.0844C106.15 34.0544 107.38 35.2644 108.32 36.7144C109.26 38.1644 109.74 39.9144 109.74 41.9444C109.74 39.9044 110.18 38.1644 111.05 36.7144C111.92 35.2644 113.07 34.0344 114.5 33.0444C115.93 32.0544 117.53 31.3144 119.3 30.8244C121.07 30.3444 122.83 30.0744 124.57 30.0244C122.87 29.9744 121.17 29.7444 119.45 29.3344C117.73 28.9244 116.17 28.2844 114.76 27.4044C113.35 26.5344 112.19 25.4044 111.27 24.0244C110.36 22.6444 109.85 20.9344 109.75 18.9044Z" fill="#403D39"/>
<path id="Vector_4" d="M150.96 44.7744C150.96 46.0844 151.2 47.2344 151.69 48.2244C152.17 49.2144 152.84 50.0444 153.69 50.6944C154.54 51.3444 155.51 51.8444 156.6 52.1844C157.69 52.5244 158.84 52.6944 160.05 52.6944C162.67 52.6944 164.71 52.3944 166.19 51.7844C167.67 51.1744 168.41 50.2944 168.41 49.1344V47.7544H182.66V49.8644C182.66 51.8044 182.09 53.5944 180.95 55.2444C179.81 56.8944 178.24 58.3244 176.23 59.5344C174.22 60.7444 171.83 61.6944 169.07 62.3644C166.31 63.0444 163.3 63.3844 160.06 63.3844C156.72 63.3844 153.63 62.9144 150.79 61.9644C147.95 61.0144 145.5 59.6844 143.41 57.9644C141.33 56.2444 139.69 54.2144 138.5 51.8644C137.31 49.5144 136.72 46.9144 136.72 44.0544V35.3344C136.72 32.3344 137.31 29.6044 138.5 27.1544C139.69 24.7044 141.32 22.6244 143.41 20.9044C145.49 19.1844 147.95 17.8544 150.79 16.9044C153.63 15.9544 156.71 15.4844 160.06 15.4844C163.41 15.4844 166.49 15.9544 169.33 16.9044C172.16 17.8444 174.62 19.1844 176.71 20.9044C178.79 22.6244 180.43 24.7044 181.62 27.1544C182.81 29.6044 183.4 32.3244 183.4 35.3344V44.4944H150.98V44.7744H150.96ZM160.77 18.9044C160.67 20.9444 160.13 22.6644 159.13 24.0644C158.14 25.4744 156.9 26.6044 155.42 27.4844C153.94 28.3544 152.32 29.0044 150.55 29.4144C148.78 29.8244 147.02 30.0544 145.28 30.1044C147.07 30.1544 148.88 30.4244 150.69 30.9044C152.51 31.3844 154.17 32.1144 155.67 33.0844C157.17 34.0544 158.4 35.2644 159.34 36.7144C160.28 38.1644 160.76 39.9144 160.76 41.9444C160.76 39.9044 161.2 38.1644 162.07 36.7144C162.94 35.2644 164.09 34.0344 165.52 33.0444C166.95 32.0544 168.55 31.3144 170.32 30.8244C172.09 30.3444 173.85 30.0744 175.59 30.0244C173.89 29.9744 172.19 29.7444 170.47 29.3344C168.75 28.9244 167.19 28.2844 165.78 27.4044C164.37 26.5344 163.21 25.4044 162.29 24.0244C161.38 22.6444 160.87 20.9344 160.77 18.9044Z" fill="#403D39"/>
<path id="Vector_5" d="M202.71 24.4978C203.1 23.4778 203.63 22.4878 204.31 21.5178C204.99 20.5478 205.8 19.6878 206.74 18.9378C207.68 18.1878 208.76 17.5978 209.97 17.1578C211.18 16.7178 212.56 16.5078 214.11 16.5078H216.94V28.8678H215.05C213.5 28.8678 212.05 29.1678 210.69 29.7778C209.33 30.3878 208.11 31.2478 207.02 32.3578C205.93 33.4778 205.01 34.7978 204.26 36.3178C203.51 37.8478 202.99 39.5278 202.7 41.3678V62.3678H188.45V16.5078H202.7V24.4978H202.71Z" fill="#403D39"/>
</g>
<path id="Vector_6" d="M96.0902 12.88L122.17 10.49L119.17 0L95.1802 6.98L96.0902 12.88Z" fill="#DB4752"/>
</g>
<defs>
<filter id="filter0_d_128_188" x="0" y="0" width="220.95" height="71.3906" filterUnits="userSpaceOnUse" color-interpolation-filters="sRGB">
<feFlood flood-opacity="0" result="BackgroundImageFix"/>
<feColorMatrix in="SourceAlpha" type="matrix" values="0 0 0 0 0 0 0 0 0 0 0 0 0 0 0 0 0 0 127 0" result="hardAlpha"/>
<feOffset dy="4"/>
<feGaussianBlur stdDeviation="2"/>
<feComposite in2="hardAlpha" operator="out"/>
<feColorMatrix type="matrix" values="0 0 0 0 0 0 0 0 0 0 0 0 0 0 0 0 0 0 0.25 0"/>
<feBlend mode="normal" in2="BackgroundImageFix" result="effect1_dropShadow_128_188"/>
<feBlend mode="normal" in="SourceGraphic" in2="effect1_dropShadow_128_188" result="shape"/>
</filter>
<clipPath id="clip0_128_188">
<rect width="212.95" height="63.39" fill="white" transform="translate(4)"/>
</clipPath>
</defs>
</svg>
